<svg width="64" height="64" viewBox="0 0 64 64" fill="none" xmlns="http://www.w3.org/2000/svg">
<path d="M7 25.35C7.53043 25.35 8.03914 25.1393 8.41421 24.7642C8.78929 24.3891 9 23.8804 9 23.35V9H23.35C23.8804 9 24.3891 8.78929 24.7642 8.41421C25.1393 8.03914 25.35 7.53043 25.35 7C25.35 6.46957 25.1393 5.96086 24.7642 5.58579C24.3891 5.21071 23.8804 5 23.35 5H7C6.46957 5 5.96086 5.21071 5.58579 5.58579C5.21071 5.96086 5 6.46957 5 7V23.35C5 23.8804 5.21071 24.3891 5.58579 24.7642C5.96086 25.1393 6.46957 25.35 7 25.35Z" fill="#ffffff" id="id_101"></path>
<path d="M23.35 54.9999H9V40.6499C9 40.1195 8.78929 39.6108 8.41421 39.2357C8.03914 38.8606 7.53043 38.6499 7 38.6499C6.46957 38.6499 5.96086 38.8606 5.58579 39.2357C5.21071 39.6108 5 40.1195 5 40.6499V56.9999C5 57.5303 5.21071 58.039 5.58579 58.4141C5.96086 58.7892 6.46957 58.9999 7 58.9999H23.35C23.8804 58.9999 24.3891 58.7892 24.7642 58.4141C25.1393 58.039 25.35 57.5303 25.35 56.9999C25.35 56.4695 25.1393 55.9608 24.7642 55.5857C24.3891 55.2106 23.8804 54.9999 23.35 54.9999Z" fill="#ffffff" id="id_102"></path>
<path d="M40.65 9H55V23.35C55 23.8804 55.2107 24.3891 55.5858 24.7642C55.9609 25.1393 56.4696 25.35 57 25.35C57.5305 25.35 58.0392 25.1393 58.4142 24.7642C58.7893 24.3891 59 23.8804 59 23.35V7C59 6.46957 58.7893 5.96086 58.4142 5.58579C58.0392 5.21071 57.5305 5 57 5H40.65C40.1196 5 39.6109 5.21071 39.2358 5.58579C38.8607 5.96086 38.65 6.46957 38.65 7C38.65 7.53043 38.8607 8.03914 39.2358 8.41421C39.6109 8.78929 40.1196 9 40.65 9Z" fill="#ffffff" id="id_103"></path>
<path d="M55 40.6499V54.9999H40.65C40.1196 54.9999 39.6109 55.2106 39.2358 55.5857C38.8607 55.9608 38.65 56.4695 38.65 56.9999C38.65 57.5303 38.8607 58.039 39.2358 58.4141C39.6109 58.7892 40.1196 58.9999 40.65 58.9999H57C57.5305 58.9999 58.0392 58.7892 58.4142 58.4141C58.7893 58.039 59 57.5303 59 56.9999V40.6499C59 40.1195 58.7893 39.6108 58.4142 39.2357C58.0392 38.8606 57.5305 38.6499 57 38.6499C56.4696 38.6499 55.9609 38.8606 55.5858 39.2357C55.2107 39.6108 55 40.1195 55 40.6499Z" fill="#ffffff" id="id_104"></path>
<path d="M60 30H4C3.46957 30 2.96086 30.2107 2.58579 30.5858C2.21071 30.9609 2 31.4696 2 32C2 32.5304 2.21071 33.0391 2.58579 33.4142C2.96086 33.7893 3.46957 34 4 34H60C60.5304 34 61.0391 33.7893 61.4142 33.4142C61.7893 33.0391 62 32.5304 62 32C62 31.4696 61.7893 30.9609 61.4142 30.5858C61.0391 30.2107 60.5304 30 60 30Z" fill="#ffffff" id="id_105"></path>
</svg>